# xmcd
#
# Track frame offsets:
#	150
#	17419
#	30830
#	41311
#	51311
#	62290
#	78368
#	93387
#	107973
#	120892
#	141778
#
# Disc length: 2065 seconds
#
# Revision: 0
# Processed by: cddbd v1.5.2PL0 Copyright (c) Steve Scherf et al.
# Submitted via: EasyCDDAExtractor 11.1.0.1
#
DISCID=77080f0b
DTITLE=The Flying Burrito Brothers - Last of the Red Hot Burritos
DYEAR=1972
DGENRE=Classic Rock
TTITLE0=Christines Tune
TTITLE1=Six Days On The Road
TTITLE2=My Uncle
TTITLE3=Dixie Breakdown
TTITLE4=Dont Let Your Deal Go Down
TTITLE5=Orange Blossom Special
TTITLE6=Aint That A Lot Of Love
TTITLE7=High Fashion Queen
TTITLE8=Dont Fight It
TTITLE9=Hot Burrito Two
TTITLE10=Losing Game
EXTD=
EXTT0=
EXTT1=
EXTT2=
EXTT3=
EXTT4=
EXTT5=
EXTT6=
EXTT7=
EXTT8=
EXTT9=
EXTT10=
PLAYORDER=
